<svg id="log-svg" xmlns="http://www.w3.org/2000/svg" viewBox="0 0 547.1 51"><style>.st0{fill:#204a68}</style><path class="st0" d="M42.2 39.7c-3.9 5.5-10.4 9-18.1 9-12.7 0-22.4-10.3-22.4-22.8C1.7 13.2 11.4 3 24.1 3c7.6 0 14 3.4 17.9 8.8l-6.6 4.7c-2.6-3.4-6.6-5.7-11.3-5.7-8.1 0-14.1 6.7-14.1 15s6.1 15 14.1 15c4.8 0 9-2.4 11.6-6l6.5 4.9zm19.3-6.8c0-9.5 7.1-15.6 15.7-15.6 8.5 0 15.7 6.1 15.7 15.6s-7.2 15.8-15.7 15.8c-8.6-.1-15.7-6.3-15.7-15.8zm23.5 0c0-4.8-3.6-7.9-7.9-7.9s-7.9 3.1-7.9 7.9c0 4.9 3.6 8.1 7.9 8.1s7.9-3.2 7.9-8.1zm57.8-.9v16.1h-7.9V31.5c-.1-4.2-2.5-6.5-5.6-6.5-3.2 0-6.3 1.9-6.3 7v16.1h-7.9V17.9h7.9v4.5c1.7-3.7 5.8-5 8.7-5 4.8.3 7.9 1.9 9.6 5.6 2.8-5 7.1-5.7 9.5-5.7 7.3 0 11.6 4.7 11.6 13.6v17.2h-7.8V31.7c0-4.3-2.5-6.7-5.7-6.7-3.5 0-6.1 2.4-6.1 7zm72.4 3.6h-23c.5 4 3.9 6.5 8.3 6.5 3 0 6.1-1.3 7.6-3.9 1.9 1 4.1 2.2 6 3.2-2.7 5.2-8.5 7.3-14.1 7.3-8.6 0-15.6-6.3-15.6-15.8s7-15.6 15.6-15.6 15.3 6.1 15.3 15.6c0 .8 0 2-.1 2.7zm-7.6-5.4c-.6-4.1-3.7-6.4-7.6-6.4-4.1 0-7.4 2.3-7.9 6.4h15.5zM304 3.6v44.5h-8.3V29.7h-17.8v18.4h-8.2V3.6h8.2v18.7h17.8V3.6h8.3zm54.3 32h-23c.5 4 3.9 6.5 8.3 6.5 3 0 6.1-1.3 7.6-3.9 1.9 1 4.1 2.2 6 3.2-2.7 5.2-8.5 7.3-14.1 7.3-8.6 0-15.6-6.3-15.6-15.8s7-15.6 15.6-15.6 15.3 6.1 15.3 15.6c0 .8-.1 2-.1 2.7zm-7.6-5.4c-.6-4.1-3.7-6.4-7.6-6.4-4.1 0-7.4 2.3-7.9 6.4h15.5zm52.5 14c-1.9 3.1-6.4 4.5-9.4 4.5-7.9 0-15.4-6.1-15.4-15.7 0-9.7 7.4-15.7 15.4-15.7 2.7 0 7.2 1 9.4 4.4V18h7.9v30.2h-7.9v-4zm-8.3-3.1c4.3 0 8.3-3 8.3-8.1 0-5.2-4.1-8.1-8.3-8.1-4.3 0-8.3 3.2-8.3 8.1 0 4.8 4 8.1 8.3 8.1zm48.2 7h-7.9V17.9h7.9V25c1.6-5.5 5.1-7.7 8.5-7.7 2.1 0 3.7.5 5 1.1l-1.4 7.1c-1.9-.8-3.8-.8-4.6-.8-5.4 0-7.6 4.8-7.6 12.8v10.6zm44.3-30.2h6.4v6.3h-6.4V48h-7.8V24.2h-5.5v-6.3h5.5V6.4h7.8v11.5zm48.3 16.2h-5.9V23.6h-10.4v-5.9h10.4V7.4h5.9v10.4h10.4v5.9h-10.4v10.4z"/></svg>